{
	"asset":{
		"generator":"Khronos glTF Blender I/O v4.2.70",
		"version":"2.0"
	},
	"scene":0,
	"scenes":[
		{
			"name":"Scene",
			"nodes":[
				0,
				1,
				2,
				3,
				4,
				5,
				6,
				7,
				8,
				9,
				10,
				11,
				12,
				13
			]
		}
	],
	"nodes":[
		{
			"mesh":0,
			"name":"PipeObj_1"
		},
		{
			"name":"PipeObj_1_Segment_1"
		},
		{
			"name":"PipeObj_1_Segment_2"
		},
		{
			"name":"PipeObj_1_Segment_3"
		},
		{
			"name":"PipeObj_1_Segment_4"
		},
		{
			"name":"PipeObj_1_Segment_5"
		},
		{
			"name":"PipeObj_1_Segment_6"
		},
		{
			"mesh":1,
			"name":"PipeObj_2"
		},
		{
			"name":"PipeObj_2_Segment_1"
		},
		{
			"name":"PipeObj_2_Segment_2"
		},
		{
			"name":"PipeObj_2_Segment_3"
		},
		{
			"mesh":2,
			"name":"PipeObj_3"
		},
		{
			"name":"PipeObj_3_Segment_1"
		},
		{
			"name":"PipeObj_3_Segment_2"
		}
	],
	"meshes":[
		{
			"name":"PipeCurve_1.005",
			"primitives":[
				{
					"attributes":{
						"POSITION":0,
						"NORMAL":1,
						"TEXCOORD_0":2
					},
					"indices":3
				}
			]
		},
		{
			"name":"PipeCurve_2.001",
			"primitives":[
				{
					"attributes":{
						"POSITION":4,
						"NORMAL":5,
						"TEXCOORD_0":6
					},
					"indices":7
				}
			]
		},
		{
			"name":"PipeCurve_3.001",
			"primitives":[
				{
					"attributes":{
						"POSITION":8,
						"NORMAL":9,
						"TEXCOORD_0":10
					},
					"indices":11
				}
			]
		}
	],
	"accessors":[
		{
			"bufferView":0,
			"componentType":5126,
			"count":260,
			"max":[
				10,
				0.10000000894069672,
				0.05000000074505806
			],
			"min":[
				-9.313225746154785e-10,
				-3.725290298461914e-09,
				-9.050000190734863
			],
			"type":"VEC3"
		},
		{
			"bufferView":1,
			"componentType":5126,
			"count":260,
			"type":"VEC3"
		},
		{
			"bufferView":2,
			"componentType":5126,
			"count":260,
			"type":"VEC2"
		},
		{
			"bufferView":3,
			"componentType":5123,
			"count":1368,
			"type":"SCALAR"
		},
		{
			"bufferView":4,
			"componentType":5126,
			"count":143,
			"max":[
				17,
				0.10000000894069672,
				5.587935447692871e-09
			],
			"min":[
				11.949999809265137,
				-3.725290298461914e-09,
				-5.050000190734863
			],
			"type":"VEC3"
		},
		{
			"bufferView":5,
			"componentType":5126,
			"count":143,
			"type":"VEC3"
		},
		{
			"bufferView":6,
			"componentType":5126,
			"count":143,
			"type":"VEC2"
		},
		{
			"bufferView":7,
			"componentType":5123,
			"count":720,
			"type":"SCALAR"
		},
		{
			"bufferView":8,
			"componentType":5126,
			"count":117,
			"max":[
				28,
				0.10000000894069672,
				5.587935447692871e-09
			],
			"min":[
				23.950000762939453,
				-3.725290298461914e-09,
				-4.050000190734863
			],
			"type":"VEC3"
		},
		{
			"bufferView":9,
			"componentType":5126,
			"count":117,
			"type":"VEC3"
		},
		{
			"bufferView":10,
			"componentType":5126,
			"count":117,
			"type":"VEC2"
		},
		{
			"bufferView":11,
			"componentType":5123,
			"count":576,
			"type":"SCALAR"
		}
	],
	"bufferViews":[
		{
			"buffer":0,
			"byteLength":3120,
			"byteOffset":0,
			"target":34962
		},
		{
			"buffer":0,
			"byteLength":3120,
			"byteOffset":3120,
			"target":34962
		},
		{
			"buffer":0,
			"byteLength":2080,
			"byteOffset":6240,
			"target":34962
		},
		{
			"buffer":0,
			"byteLength":2736,
			"byteOffset":8320,
			"target":34963
		},
		{
			"buffer":0,
			"byteLength":1716,
			"byteOffset":11056,
			"target":34962
		},
		{
			"buffer":0,
			"byteLength":1716,
			"byteOffset":12772,
			"target":34962
		},
		{
			"buffer":0,
			"byteLength":1144,
			"byteOffset":14488,
			"target":34962
		},
		{
			"buffer":0,
			"byteLength":1440,
			"byteOffset":15632,
			"target":34963
		},
		{
			"buffer":0,
			"byteLength":1404,
			"byteOffset":17072,
			"target":34962
		},
		{
			"buffer":0,
			"byteLength":1404,
			"byteOffset":18476,
			"target":34962
		},
		{
			"buffer":0,
			"byteLength":936,
			"byteOffset":19880,
			"target":34962
		},
		{
			"buffer":0,
			"byteLength":1152,
			"byteOffset":20816,
			"target":34963
		}
	],
	"buffers":[
		{
			"byteLength":21968,
			"uri":"pipe_model_all.bin"
		}
	]
}
